<mxfile host="app.diagrams.net" modified="2023-05-02T07:48:50.902Z" agent="Mozilla/5.0 (Macintosh; Intel Mac OS X 10_15_7) AppleWebKit/537.36 (KHTML, like Gecko) Chrome/112.0.0.0 Safari/537.36" version="21.2.4" etag="a3vqlU1S38OHkWSJnxNb" type="github">
  <diagram name="Page-1" id="Psw6mn2Nr-ZEXJ1GQ1lP">
    <mxGraphModel>
      <root>
        <mxCell id="0" />
        <mxCell id="1" parent="0" />
      </root>
    </mxGraphModel>
  </diagram>
</mxfile>
